<?xml version="1.0" standalone="no"?>
<!DOCTYPE svg PUBLIC "-//W3C//DTD SVG 20010904//EN"
 "http://www.w3.org/TR/2001/REC-SVG-20010904/DTD/svg10.dtd">
<svg version="1.0" xmlns="http://www.w3.org/2000/svg"
 width="306.000000pt" height="306.000000pt" viewBox="0 0 306.000000 306.000000"
 preserveAspectRatio="xMidYMid meet">
<metadata>
Created by potrace 1.14, written by Peter Selinger 2001-2017
</metadata>
<g transform="translate(0.000000,306.000000) scale(0.100000,-0.100000)"
fill="#000000" stroke="none">
<path d="M2800 2726 c-25 -12 -46 -24 -48 -28 -2 -5 -8 -8 -14 -8 -16 0 -42
-32 -45 -56 -2 -13 -4 -35 -6 -49 -4 -30 -53 -98 -82 -113 -100 -52 -175 -58
-241 -21 -21 12 -64 36 -94 52 -30 17 -58 34 -61 39 -12 19 -106 27 -118 11
-6 -8 -74 -46 -118 -67 -13 -6 -23 -14 -23 -18 0 -5 -10 -8 -22 -8 -12 0 -18
-3 -15 -6 4 -4 -10 -15 -31 -25 -21 -11 -53 -32 -71 -47 l-34 -28 2 -149 c4
-256 4 -253 37 -280 16 -13 32 -21 36 -18 5 2 8 0 8 -5 0 -5 14 -15 30 -22 56
-23 151 -131 142 -162 -1 -5 3 -8 8 -8 5 0 9 -3 8 -7 -1 -5 4 -27 11 -51 21
-75 5 -199 -34 -259 -9 -13 -13 -23 -10 -23 3 0 -3 -9 -12 -19 -41 -43 -63
-73 -63 -84 0 -5 -3 -8 -6 -4 -3 3 -18 -5 -33 -19 -14 -13 -41 -30 -58 -36
-18 -7 -33 -15 -33 -18 0 -20 -191 -10 -216 11 -6 5 -13 7 -16 4 -3 -3 -11 1
-18 10 -7 8 -18 15 -25 15 -14 0 -132 110 -118 110 4 1 -3 10 -16 20 -13 11
-21 20 -17 20 3 0 -4 21 -16 48 -19 42 -21 69 -23 274 -2 125 -6 232 -9 237
-4 5 -2 12 4 16 6 4 8 11 5 16 -4 5 -8 18 -10 30 -5 26 -43 61 -84 78 -17 8
-31 17 -31 20 0 4 -24 18 -52 31 -29 13 -55 26 -58 29 -3 3 -34 21 -70 40 -36
19 -67 37 -70 40 -5 6 -46 29 -170 93 -64 34 -81 39 -115 33 -22 -3 -41 -10
-43 -15 -2 -6 -8 -10 -13 -10 -6 0 -87 -46 -182 -103 -95 -57 -194 -116 -222
-132 -27 -15 -52 -31 -55 -35 -3 -4 -15 -10 -27 -14 -13 -4 -23 -14 -23 -22 0
-8 -5 -13 -11 -12 -34 8 -39 -121 -24 -562 2 -58 4 -116 4 -130 1 -33 35 -71
91 -101 25 -13 47 -26 50 -29 3 -3 21 -13 40 -23 19 -9 61 -32 92 -50 32 -17
86 -47 120 -66 35 -18 66 -39 70 -45 4 -6 8 -7 8 -2 0 5 8 2 18 -6 9 -8 40
-26 69 -40 64 -31 101 -28 166 12 27 17 53 30 58 30 5 0 9 5 9 11 0 5 5 7 10
4 6 -3 10 -2 10 3 0 5 8 12 18 15 9 4 35 17 57 31 22 14 60 37 85 51 25 14 65
37 89 51 82 49 222 32 336 -39 28 -17 56 -39 63 -49 7 -9 19 -24 27 -32 8 -8
15 -19 15 -25 0 -6 5 -11 10 -11 6 0 9 -3 8 -7 -1 -5 4 -19 12 -33 17 -32 20
-50 25 -195 9 -217 10 -225 36 -243 13 -9 27 -16 32 -14 4 1 7 -2 7 -8 0 -5 6
-10 14 -10 7 0 19 -7 26 -15 7 -9 15 -13 18 -11 3 3 17 -3 32 -14 16 -11 33
-20 39 -20 6 0 11 -4 11 -10 0 -5 5 -10 10 -10 6 0 22 -8 37 -17 14 -10 33
-18 41 -19 8 -2 18 -7 21 -12 12 -19 144 -82 167 -80 13 1 24 6 24 10 0 4 6 8
14 8 8 0 16 7 20 15 3 8 9 14 13 13 4 -1 39 15 76 37 38 22 78 45 89 51 11 7
25 17 31 23 6 6 19 11 29 11 10 0 18 4 18 10 0 5 22 21 50 35 27 14 60 36 73
50 23 26 23 26 21 268 -1 144 -6 253 -12 269 -9 22 -78 78 -96 78 -2 0 -39 20
-80 45 -42 25 -81 45 -86 45 -6 0 -10 5 -10 10 0 6 -7 10 -15 10 -28 0 -91 75
-109 131 -20 60 -24 160 -8 200 6 15 8 30 5 33 -4 3 -2 6 3 6 5 0 10 10 11 22
1 11 6 24 11 27 9 6 36 51 37 62 0 11 99 89 112 89 7 0 13 4 13 8 0 5 19 18
43 30 47 24 86 57 88 75 1 7 2 77 3 157 2 98 6 153 15 169 20 37 82 101 98
101 7 0 13 4 13 9 0 10 86 36 111 34 10 -1 37 -11 60 -21 l43 -20 41 21 c22
12 42 25 43 30 2 4 10 7 18 7 8 0 14 5 14 10 0 6 6 10 13 10 8 0 14 6 15 13 7
63 6 108 -3 111 -6 3 -5 5 2 5 9 1 10 8 3 25 -5 13 -7 26 -4 28 2 3 -13 14
-34 25 -20 11 -53 29 -72 40 l-35 20 -45 -21z"/>
</g>
</svg>
